<?xml version="1.0" standalone="no"?>
<!DOCTYPE svg PUBLIC "-//W3C//DTD SVG 20010904//EN"
 "http://www.w3.org/TR/2001/REC-SVG-20010904/DTD/svg10.dtd">
<svg version="1.0" xmlns="http://www.w3.org/2000/svg"
 width="764.000000pt" height="764.000000pt" viewBox="0 0 764.000000 764.000000"
 preserveAspectRatio="xMidYMid meet">
<metadata>
Created by potrace 1.14, written by Peter Selinger 2001-2017
</metadata>
<g transform="translate(0.000000,764.000000) scale(0.100000,-0.100000)"
fill="#000000" stroke="none">
<path d="M3791 7057 c-98 -174 -139 -306 -135 -426 5 -116 21 -153 78 -180 37
-17 67 -19 158 -12 25 2 64 41 81 82 46 111 -9 367 -113 524 -11 17 -23 36
-26 43 -10 20 -18 14 -43 -31z"/>
<path d="M3606 6227 c-25 -34 -128 -199 -140 -224 -6 -13 -14 -23 -18 -23 -5
0 -8 -5 -8 -10 0 -6 -16 -33 -35 -60 -19 -28 -32 -50 -28 -50 5 0 3 -4 -3 -8
-5 -4 -58 -83 -117 -177 -59 -93 -112 -177 -117 -185 -6 -8 -28 -42 -49 -75
-32 -52 -59 -93 -151 -239 -8 -13 -30 -48 -48 -77 -18 -30 -55 -88 -82 -129
-27 -41 -53 -82 -57 -90 -3 -8 -14 -26 -24 -40 -9 -14 -32 -50 -51 -80 -19
-30 -60 -93 -90 -140 -46 -72 -87 -138 -198 -315 -145 -232 -285 -451 -290
-455 -4 -3 -9 -10 -11 -16 -8 -21 -414 -659 -421 -662 -4 -2 -8 -8 -8 -12 0
-8 -79 -139 -90 -150 -3 -3 -11 -17 -19 -32 -8 -16 -18 -28 -23 -28 -4 0 -8
-5 -8 -10 0 -12 -52 -94 -62 -98 -5 -2 -8 -8 -8 -14 0 -6 -16 -35 -35 -64 -20
-30 -36 -57 -37 -61 -1 -5 -10 -17 -20 -27 -10 -11 -18 -26 -18 -33 0 -7 -4
-13 -10 -13 -5 0 -10 -7 -10 -15 0 -8 -4 -15 -10 -15 -5 0 -10 -5 -10 -11 0
-6 -12 -26 -26 -45 -15 -19 -22 -34 -18 -34 5 0 4 -4 -1 -8 -6 -4 -26 -32 -45
-62 -19 -30 -37 -57 -41 -60 -3 -3 -13 -19 -22 -35 -17 -34 -80 -133 -97 -152
-5 -7 -10 -14 -10 -17 0 -5 -56 -95 -90 -146 -6 -8 -53 -82 -105 -165 -52 -82
-99 -155 -105 -162 -5 -7 -10 -15 -10 -18 0 -3 -26 -45 -57 -93 -32 -48 -57
-90 -55 -94 1 -5 -2 -8 -7 -8 -5 0 -14 -13 -21 -30 -7 -16 -16 -30 -21 -30 -5
0 -9 -4 -9 -9 0 -5 -49 -86 -110 -181 -60 -94 -110 -175 -110 -180 0 -6 -4
-10 -9 -10 -5 0 -14 -13 -21 -30 -7 -16 -16 -30 -20 -30 -4 0 -10 -8 -13 -17
-7 -23 -37 -72 -60 -97 -9 -11 -17 -25 -17 -32 0 -7 -4 -14 -8 -16 -4 -2 -37
-50 -72 -108 -35 -58 -67 -107 -71 -110 -3 -3 -14 -21 -24 -40 -13 -24 -14
-32 -4 -24 8 6 100 76 204 154 105 79 193 148 197 154 5 7 8 7 8 1 0 -5 6 -3
13 5 7 9 28 27 47 40 19 14 42 30 50 37 8 7 42 32 75 57 33 25 69 52 80 60 11
9 47 36 80 61 33 25 71 53 85 64 44 34 128 95 157 116 35 24 131 121 158 158
11 16 30 39 42 53 12 13 34 41 50 61 15 21 33 43 39 48 5 6 37 44 70 85 32 41
64 80 69 86 6 7 24 29 40 50 17 21 37 45 45 54 8 8 28 34 45 55 16 22 34 45
40 51 5 6 24 28 40 49 17 21 35 43 40 49 6 6 66 81 135 166 68 85 132 164 142
175 9 11 33 40 53 65 20 25 44 54 53 65 10 11 33 40 52 65 19 25 57 72 85 105
27 33 64 77 80 98 17 21 40 50 53 65 12 15 51 63 85 106 34 44 74 92 89 108
15 15 24 28 20 28 -4 0 -2 4 5 8 6 4 25 25 42 46 17 21 31 35 31 29 0 -5 -5
-14 -11 -20 -6 -6 -12 -17 -13 -24 -3 -15 -126 -276 -151 -320 -8 -14 -12 -29
-8 -33 3 -3 1 -6 -5 -6 -7 0 -12 -4 -12 -9 0 -5 -26 -65 -59 -133 -99 -208
-121 -257 -121 -268 0 -5 -4 -10 -10 -10 -5 0 -10 -6 -10 -14 0 -8 -13 -39
-30 -70 -16 -31 -29 -59 -30 -61 -1 -5 -73 -160 -126 -271 -19 -38 -34 -76
-34 -82 0 -7 -4 -12 -10 -12 -5 0 -10 -4 -10 -9 0 -5 -13 -39 -30 -74 -16 -36
-30 -70 -30 -76 0 -6 -4 -11 -10 -11 -5 0 -10 -5 -10 -11 0 -7 -16 -44 -35
-84 -19 -40 -58 -122 -86 -181 -28 -60 -65 -138 -82 -174 -17 -36 -31 -67 -32
-70 0 -3 -7 -16 -15 -30 -8 -14 -14 -27 -15 -30 0 -6 -48 -107 -86 -182 -16
-32 -26 -58 -21 -58 4 0 3 -4 -3 -8 -10 -7 -68 -122 -61 -122 4 0 446 437 973
962 161 161 291 293 289 296 -3 2 2 23 11 45 8 23 16 49 18 57 3 15 71 243 98
332 8 26 12 49 9 52 -3 4 -1 6 4 6 5 0 10 8 11 18 1 16 35 133 50 172 3 8 7
20 9 27 3 15 35 123 76 258 17 55 32 106 33 115 2 8 4 15 5 15 1 0 3 7 5 15
17 65 41 147 46 155 6 9 15 44 24 85 2 8 11 38 20 65 10 28 18 55 20 60 1 6 8
30 15 55 7 25 15 52 17 60 5 19 9 32 16 50 3 8 13 42 22 75 9 33 18 67 21 75
3 8 5 15 4 15 -1 0 4 14 10 30 7 17 13 37 15 45 3 8 18 62 36 120 17 58 32
110 33 115 11 42 20 72 25 80 3 6 7 18 8 28 2 10 14 53 28 96 14 43 27 87 30
97 2 11 40 139 84 286 45 147 81 275 81 284 0 10 3 14 7 10 4 -4 8 -555 9
-1224 1 -1081 3 -1223 17 -1272 9 -30 14 -56 12 -59 -3 -2 -1 -9 4 -15 5 -6
12 -24 15 -41 8 -47 34 -160 45 -199 5 -20 7 -36 5 -36 -3 0 0 -8 5 -19 6 -10
13 -33 16 -52 3 -19 8 -42 11 -51 3 -9 7 -26 9 -37 12 -51 14 -60 23 -94 6
-20 8 -38 5 -41 -3 -3 -1 -11 4 -18 6 -7 14 -33 18 -58 6 -37 9 -41 15 -24 5
12 11 38 14 59 4 20 8 40 10 44 3 3 7 26 11 51 4 25 8 47 10 51 2 3 7 21 10
40 3 19 10 52 15 74 5 22 12 56 15 75 4 19 8 40 9 45 1 6 5 16 9 23 5 6 6 12
4 12 -2 0 2 26 10 58 7 31 16 68 18 82 2 14 13 66 24 117 20 89 21 120 22
1305 l1 1213 24 -75 c14 -41 26 -84 28 -95 3 -11 5 -21 7 -22 2 -3 3 -8 13
-48 4 -16 11 -39 16 -50 4 -11 13 -40 20 -65 7 -25 16 -56 20 -70 4 -14 18
-59 30 -100 12 -41 24 -82 27 -90 3 -8 8 -26 10 -40 2 -13 9 -30 14 -36 5 -7
9 -16 8 -20 -1 -5 0 -12 1 -16 1 -5 3 -11 4 -15 7 -25 39 -132 46 -153 12 -35
49 -159 125 -420 37 -124 73 -244 81 -267 7 -24 16 -57 19 -75 3 -17 9 -36 13
-42 3 -6 7 -15 9 -21 1 -5 9 -35 18 -65 9 -30 25 -82 34 -115 10 -33 20 -67
24 -75 3 -8 9 -28 13 -45 10 -41 11 -45 14 -47 1 -2 3 -10 5 -18 6 -24 56
-193 62 -210 3 -8 8 -24 10 -35 2 -11 7 -31 13 -45 10 -29 59 -190 61 -205 1
-5 10 -34 20 -62 10 -29 15 -53 12 -53 -3 0 -1 -6 5 -12 6 -7 11 -16 11 -21 2
-17 15 -67 38 -137 13 -41 25 -83 26 -92 2 -10 6 -21 10 -24 4 -4 7 -15 7 -24
0 -8 180 -193 401 -410 221 -217 503 -495 627 -617 124 -123 227 -221 229
-219 2 1 -7 25 -19 52 -12 27 -21 52 -20 57 1 4 -3 7 -8 7 -6 0 -10 4 -10 9 0
4 -21 53 -47 107 -26 54 -46 102 -45 107 1 4 -3 7 -8 7 -5 0 -9 3 -8 8 1 4
-19 50 -44 102 -25 52 -69 145 -98 205 -29 61 -70 147 -91 192 -22 44 -39 86
-39 92 0 6 -4 11 -10 11 -5 0 -10 5 -10 11 0 6 -16 45 -36 87 -21 43 -64 133
-97 202 -32 69 -76 161 -97 205 -21 44 -61 130 -91 190 -29 61 -53 112 -53
115 -1 3 -20 44 -42 90 -23 47 -58 121 -79 165 -21 44 -57 121 -81 172 -24 50
-44 96 -44 101 0 6 -3 12 -7 14 -5 2 -20 29 -35 61 -25 51 -26 56 -8 45 11 -7
20 -16 20 -19 0 -3 11 -18 24 -32 13 -14 34 -40 47 -58 13 -19 31 -41 39 -49
8 -9 29 -33 45 -54 17 -21 35 -44 40 -50 6 -6 28 -33 50 -61 22 -27 45 -55 50
-62 6 -6 19 -23 30 -37 11 -15 25 -32 30 -39 6 -6 39 -48 75 -92 35 -44 67
-82 70 -85 3 -3 19 -23 36 -45 16 -22 34 -44 40 -50 6 -5 58 -68 115 -140 56
-71 111 -137 121 -146 10 -9 18 -20 18 -25 0 -5 12 -22 28 -39 15 -16 47 -55
72 -85 25 -30 51 -61 57 -68 7 -7 13 -16 13 -20 0 -4 15 -23 33 -42 17 -20 48
-56 67 -80 19 -25 38 -46 42 -48 4 -2 8 -8 8 -12 0 -5 10 -20 23 -33 12 -13
36 -41 53 -63 51 -64 141 -177 171 -213 43 -53 115 -124 147 -146 16 -11 37
-28 48 -38 10 -9 21 -17 24 -17 4 0 80 -56 94 -70 3 -3 23 -18 46 -33 22 -15
49 -35 60 -45 10 -9 36 -28 56 -42 21 -14 38 -28 38 -32 0 -5 4 -8 9 -8 4 0
121 -84 259 -187 138 -104 261 -195 273 -203 12 -8 39 -30 61 -47 49 -41 66
-42 39 -4 -12 16 -21 32 -21 35 0 4 -5 12 -11 19 -6 7 -60 91 -120 187 -61 96
-119 187 -130 202 -10 15 -19 32 -19 38 0 5 -4 10 -10 10 -5 0 -10 5 -10 10 0
6 -5 16 -10 23 -21 24 -90 138 -90 147 0 6 -4 10 -10 10 -5 0 -10 5 -10 10 0
6 -5 16 -10 23 -20 23 -90 138 -90 147 0 4 -3 10 -8 12 -6 2 -91 132 -145 223
-7 10 -18 25 -24 33 -7 7 -13 17 -13 22 0 5 -6 15 -12 22 -12 13 -19 24 -50
81 -7 12 -15 24 -18 27 -7 6 -143 219 -150 234 -3 6 -31 51 -63 99 -32 49 -63
99 -69 113 -6 13 -15 24 -20 24 -4 0 -8 7 -8 15 0 8 -4 15 -10 15 -5 0 -10 5
-10 11 0 6 -22 44 -50 85 -27 41 -50 77 -50 79 0 3 -18 31 -40 62 -22 32 -40
64 -40 71 0 6 -4 12 -10 12 -5 0 -10 7 -10 15 0 8 -3 15 -8 15 -4 0 -12 9 -17
19 -6 11 -34 57 -63 103 -29 46 -59 92 -65 103 -7 11 -21 34 -33 50 -12 17
-24 40 -28 53 -4 12 -11 22 -16 22 -8 0 -15 11 -56 88 -10 17 -21 32 -26 32
-4 0 -8 5 -8 11 0 6 -13 30 -30 54 -16 24 -30 46 -30 50 0 3 -5 11 -11 18 -5
7 -19 26 -29 42 -11 17 -25 39 -32 49 -7 11 -80 125 -162 255 -190 300 -208
329 -285 453 -36 57 -75 118 -88 136 -13 17 -20 32 -16 32 4 0 3 4 -3 8 -7 4
-25 28 -40 54 -66 108 -178 283 -184 288 -4 3 -9 10 -11 16 -4 10 -109 178
-257 409 -42 66 -83 133 -91 148 -8 15 -18 27 -23 27 -4 0 -8 4 -8 10 0 5 -30
56 -66 112 -37 57 -66 105 -65 107 2 2 -1 7 -6 10 -12 9 -63 89 -63 100 0 5
-4 11 -8 13 -7 3 -190 287 -222 345 -8 15 -23 36 -32 47 -10 11 -18 26 -18 33
0 7 -4 13 -10 13 -5 0 -10 7 -10 15 0 8 -3 15 -8 15 -4 0 -12 9 -17 20 -23 46
-111 180 -118 180 -4 0 -10 -7 -13 -15 -4 -8 -10 -15 -15 -15 -6 0 -22 -12
-37 -27 -32 -32 -93 -63 -125 -63 -12 0 -40 11 -62 25 -22 14 -48 28 -57 31
-10 4 -18 10 -18 14 0 5 -13 18 -29 29 l-29 21 -16 -23z"/>
</g>
</svg>
